# xmcd
#
# Track frame offsets:
#	187
#	22472
#	42892
#	59917
#	73727
#	93787
#	120117
#	131192
#	151287
#	168562
#	188625
#	206942
#	226047
#	244520
#	259342
#
# Disc length: 3706 seconds
#
# Revision: 0
# Processed by: cddbd v1.4PL0 Copyright (c) Steve Scherf et al.
# Submitted via: dBpowerAMP V4.0
#
DISCID=d60e780f
DTITLE=Various Artist - Stomp Down Zydeco
DYEAR=1992
DGENRE=zydeco
TTITLE0=Buckwheat Zydeco - Let the good times roll
TTITLE1=Zydeco Force - Johnny can't dance
TTITLE2=John Delafose and the Eunice Playboys - Hold that tiger
TTITLE3=Pee Wee and the Zydeco Boll Weevils - Hot tamale baby
TTITLE4=Lynn August and the Hot August Knights - Hippy Ti Yo
TTITLE5=Nathan and the Zydeco Cha Chas - You're my mule
TTITLE6=John Delafose and the Eunice Playboys - Cajun Two Step
TTITLE7=Lynn August and the Hot August Knights - Choo Choo Ch'Boogie
TTITLE8=Boozoo Chavis and the Majic Sounds - Sugar bee
TTITLE9=John Delafose and the Eunice Playboys - I'm gone and I won't be back
TTITLE10=John Delafose and the Eunice Playboys - Broken hearted
TTITLE11=Lynn August and the Hot August Knights - Hey hey hey
TTITLE12=Nathan and the Zydeco Cha Chas - Everything on the hog
TTITLE13=John Delafose and the Eunice Playboys - Onion town
TTITLE14=Zydeco Force - Black baby
EXTD=
EXTT0=
EXTT1=
EXTT2=
EXTT3=
EXTT4=
EXTT5=
EXTT6=
EXTT7=
EXTT8=
EXTT9=
EXTT10=
EXTT11=
EXTT12=
EXTT13=
EXTT14=
PLAYORDER=
